<?xml version="1.0" encoding="UTF-8" standalone="no"?><svg width="301" height="300" viewBox="0 0 301 300" fill="none" xmlns="http://www.w3.org/2000/svg">
<path fill-rule="evenodd" clip-rule="evenodd" d="M142.335 0.950366C137.565 2.52847 134.374 4.5562 130.932 8.19603C120.827 18.8805 121.241 35.0724 131.879 45.2187C133.699 46.9551 136.559 49.0702 138.235 49.9196C140.885 51.2626 141.281 51.6911 141.281 53.2212C141.281 54.641 140.914 55.1416 139.375 55.8222C138.328 56.2853 134.041 58.1466 129.849 59.958C100.552 72.6186 80.2318 88.0267 73.5308 102.663L72.0207 105.962L65.7622 105.964C60.5507 105.966 59.1831 106.161 57.5926 107.131C51.9304 110.583 51.9304 118.926 57.5926 122.379C59.1532 123.331 60.5501 123.544 65.2188 123.546L70.9344 123.548V176.308V229.068L65.2188 229.07C60.5501 229.072 59.1532 229.285 57.5926 230.237C51.9304 233.689 51.9304 242.032 57.5926 245.485C59.1831 246.455 60.5507 246.65 65.7622 246.652L72.0207 246.654L73.5308 249.953C78.0669 259.86 89.599 270.862 105.221 280.186C118.615 288.179 145.429 300 150.169 300C154.849 300 181.518 288.195 194.927 280.188C210.557 270.854 222.082 259.859 226.617 249.953L228.127 246.654L234.386 246.652C239.597 246.65 240.965 246.455 242.555 245.485C248.218 242.032 248.218 233.689 242.555 230.237C240.995 229.285 239.598 229.072 234.929 229.07L229.214 229.068V176.308V123.548L234.929 123.546C239.598 123.544 240.995 123.331 242.555 122.379C248.218 118.926 248.218 110.583 242.555 107.131C240.965 106.161 239.597 105.966 234.386 105.964L228.127 105.962L226.617 102.663C219.72 87.5988 199.634 72.5869 168.247 59.0382C159.519 55.2706 159.153 55.0443 158.979 53.3073C158.813 51.6536 159.06 51.3652 161.861 49.946C165.592 48.0548 170.767 43.266 172.768 39.8524C177.596 31.6143 177.596 20.8572 172.768 12.6191C170.546 8.82915 165.235 4.13471 160.843 2.07942C157.507 0.517737 156.138 0.226386 151.312 0.049934C146.942 -0.109518 144.927 0.092728 142.335 0.950366ZM152.378 18.017C155.093 18.7955 157.587 21.3144 158.313 24.0093C160.506 32.1519 150.799 38.1313 144.444 32.5523C138.77 27.5706 142.111 18.1483 149.785 17.4929C150.109 17.4653 151.276 17.701 152.378 18.017ZM156.885 73.6568C171.521 79.6837 183.817 86.0934 193.42 92.7013C197.852 95.7514 207.523 104.486 207.523 105.439C207.523 105.741 183.304 105.962 150.074 105.962C116.844 105.962 92.6245 105.741 92.6245 105.439C92.6245 104.486 102.296 95.7514 106.728 92.7013C116.193 86.1884 127.366 80.3279 142.453 73.9622C146.483 72.2616 149.813 70.8517 149.851 70.8294C149.889 70.8066 153.055 72.0792 156.885 73.6568ZM14.0712 119.868C10.3668 121.259 7.73882 125.842 8.45518 129.661C9.20672 133.667 11.1606 135.083 25.7955 142.228C37.4015 147.894 40.0108 148.955 42.3586 148.967C48.5262 148.998 52.9768 141.939 50.1793 136.562C48.6839 133.688 46.7265 132.467 33.1362 125.925C19.7141 119.464 17.2385 118.677 14.0712 119.868ZM267.025 125.898C253.39 132.494 251.456 133.704 249.969 136.562C247.171 141.939 251.622 148.998 257.789 148.967C260.137 148.955 262.746 147.894 274.352 142.228C288.987 135.083 290.941 133.667 291.693 129.661C292.22 126.848 290.585 122.744 288.283 121.105C287.169 120.311 285.334 119.734 283.493 119.596C280.695 119.388 279.662 119.783 267.025 125.898ZM141.281 176.308V229.068H114.901H88.521V176.308V123.548H114.901H141.281V176.308ZM211.627 176.308V229.068H185.247H158.867V176.308V123.548H185.247H211.627V176.308ZM4.24672 168.684C-1.41557 172.136 -1.41557 180.479 4.24672 183.932C6.05696 185.035 7.2335 185.097 26.6749 185.097C46.1162 185.097 47.2928 185.035 49.103 183.932C54.7653 180.479 54.7653 172.136 49.103 168.684C47.2928 167.58 46.1162 167.519 26.6749 167.519C7.2335 167.519 6.05696 167.58 4.24672 168.684ZM251.045 168.684C245.383 172.136 245.383 180.479 251.045 183.932C252.855 185.035 254.032 185.097 273.473 185.097C292.914 185.097 294.091 185.035 295.901 183.932C298.573 182.303 300.142 179.483 300.142 176.308C300.142 173.133 298.573 170.313 295.901 168.684C294.091 167.58 292.914 167.519 273.473 167.519C254.032 167.519 252.855 167.58 251.045 168.684ZM40.1579 203.684C39.5131 203.854 32.9181 206.945 25.5024 210.554C11.1711 217.526 9.20554 218.956 8.45518 222.955C7.92759 225.768 9.56314 229.872 11.8646 231.511C12.9773 232.303 14.8162 232.883 16.6552 233.021C19.4538 233.231 20.4821 232.838 33.1192 226.728C46.7323 220.146 48.6856 218.924 50.1793 216.053C53.3513 209.956 46.8414 201.92 40.1579 203.684ZM255.37 203.862C248.876 205.877 247.104 214.204 252.167 218.915C252.923 219.619 259.605 223.114 267.016 226.683C277.017 231.499 281.074 233.171 282.755 233.171C290.741 233.171 294.787 223.76 289.132 218.341C287.146 216.439 261.848 204.071 259.075 203.646C257.966 203.477 256.299 203.574 255.37 203.862ZM207.523 247.176C207.523 248.13 197.852 256.864 193.42 259.914C183.836 266.509 171.519 272.933 156.962 278.927L150.074 281.764L143.186 278.927C128.629 272.933 116.312 266.509 106.728 259.914C102.296 256.864 92.6245 248.13 92.6245 247.176C92.6245 246.874 116.844 246.654 150.074 246.654C183.304 246.654 207.523 246.874 207.523 247.176Z" fill="#3EAEB5"/>
</svg>
