<?xml version="1.0" encoding="UTF-8" standalone="no"?><svg width="229" height="300" viewBox="0 0 229 300" fill="none" xmlns="http://www.w3.org/2000/svg">
<path fill-rule="evenodd" clip-rule="evenodd" d="M103.597 0.122789C102.791 0.265172 99.6272 0.803648 96.5656 1.31927C69.3201 5.90834 42.4789 24.9513 28.8131 49.3872L26.7383 53.098L20.7828 53.1003C15.8738 53.1021 14.4916 53.3072 12.9178 54.2669C5.54493 58.7622 8.52442 70.6656 17.0246 70.6738C18.2334 70.6749 19.2219 70.8542 19.2219 71.0716C19.2219 71.289 17.9188 75.4415 16.3256 80.3001C0.942393 127.213 -3.15976 156.872 2.29884 181.711C5.20626 194.94 11.8719 210.572 19.54 222.141C23.2004 227.664 23.3844 228.101 22.7428 229.758C17.7512 242.641 17.4635 244.905 17.4664 271.278C17.4682 292.544 17.525 293.718 18.633 295.535C19.2734 296.586 20.6563 297.968 21.7068 298.609C23.5906 299.758 24.8434 299.774 114.144 299.774C203.444 299.774 204.697 299.758 206.581 298.609C207.631 297.968 209.014 296.586 209.655 295.535C210.763 293.718 210.819 292.544 210.821 271.278C210.824 244.903 210.538 242.654 205.545 229.758C204.904 228.101 205.088 227.665 208.761 222.141C216.492 210.514 223.338 194.341 226.036 181.334C230.14 161.538 229.066 144.142 221.931 114.867C219.699 105.708 213.581 84.7925 210.559 75.9935C209.738 73.6005 209.066 71.4255 209.066 71.1595C209.066 70.8935 210.055 70.6749 211.263 70.6738C219.763 70.6656 222.743 58.7622 215.37 54.2669C213.796 53.3072 212.414 53.1021 207.505 53.1003L201.549 53.098L199.474 49.3872C188.058 28.9726 167.786 12.3613 144.994 4.74466C134.516 1.2431 128.77 0.310875 116.195 0.0741559C110.071 -0.0412738 104.403 -0.0195941 103.597 0.122789ZM129.423 19.0943C144.353 21.9882 159.281 29.8415 170.055 40.4699C174.334 44.6915 180.355 51.8757 180.355 52.7605C180.355 52.9462 150.56 53.098 114.144 53.098C77.7277 53.098 47.9328 52.9462 47.9328 52.7605C47.9328 51.8757 53.9539 44.6915 58.233 40.4699C71.1518 27.7257 88.8717 19.6204 107.991 17.7103C112.402 17.2697 123.808 18.0062 129.423 19.0943ZM191.942 76.5355C197.006 90.7345 207.628 129.155 207.18 131.656C207.052 132.372 205.048 131.549 198.226 127.977C155.888 105.815 117.485 91.8947 90.1344 88.7956C82.5154 87.932 66.5885 88.3878 59.3586 89.6757C51.04 91.1581 42.3324 93.9138 35.2397 97.3093C28.7949 100.395 28.7065 100.418 29.215 98.8884C29.4986 98.0347 31.3068 92.3265 33.2328 86.2035C35.1588 80.0804 37.1486 74.081 37.6549 72.871L38.5754 70.6714L114.266 70.8203L189.956 70.9691L191.942 76.5355ZM95.0984 107.59C111.301 110.36 128.362 115.848 153.547 126.395C155.4 127.17 156.916 127.971 156.917 128.173C156.918 128.832 145.757 136.949 142.824 138.423C138.985 140.351 133.514 140.837 129.344 139.622C126.391 138.761 123.98 137.385 118.891 133.658C116.145 131.646 112.143 131.646 109.396 133.658C101.546 139.408 97.9666 140.758 92.0375 140.204C87.3559 139.767 84.2902 138.234 76.4363 132.401L70.2483 127.805L70.2236 117.149L70.1984 106.493L72.1027 106.216C75.7391 105.686 88.3883 106.443 95.0984 107.59ZM52.6203 132.692C52.6203 153.586 52.717 155.829 53.8016 160.084C56.0404 168.869 61.2447 177.568 67.3326 182.701L70.1984 185.117V189.662V194.206L67.7082 194.617C57.701 196.268 45.1678 202.544 37.5664 209.71L34.5242 212.578L32.7277 209.743C27.4666 201.435 21.9693 187.948 19.8072 178.042C17.0182 165.263 17.0264 154.238 19.8377 137.473C20.8438 131.473 21.357 129.778 22.6766 128.098C24.9201 125.242 33.4098 118.475 37.9719 115.907C41.924 113.682 50.6082 109.961 51.8879 109.944C52.4615 109.936 52.6203 114.871 52.6203 132.692ZM187.63 142.665C193.78 145.843 201.515 149.953 204.818 151.8L210.823 155.158L210.813 158.181C210.798 162.593 209.789 171.638 208.711 177.024C206.761 186.766 200.94 201.248 195.56 209.743L193.763 212.578L190.721 209.71C183.12 202.544 170.587 196.268 160.579 194.617L158.089 194.206V189.662V185.117L160.955 182.701C167.043 177.568 172.247 168.869 174.486 160.084C175.426 156.398 175.667 153.551 175.667 146.168C175.667 141.064 175.843 136.887 176.057 136.887C176.272 136.887 181.479 139.487 187.63 142.665ZM73.8096 152.426C79.6807 156.296 86.0844 158.116 93.9289 158.142C99.9623 158.162 104.938 157.042 110.415 154.427L114.144 152.648L117.872 154.427C123.35 157.042 128.325 158.162 134.359 158.142C142.215 158.116 148.606 156.297 154.506 152.407C156.242 151.263 157.768 150.433 157.899 150.564C158.029 150.694 157.742 152.687 157.262 154.992C155.11 165.314 147.379 173.117 137.159 175.283C131.541 176.473 96.7965 176.484 91.1961 175.297C80.0316 172.93 72.5422 164.698 70.5125 152.561C70.3109 151.353 70.2658 150.364 70.4135 150.364C70.5611 150.364 72.0893 151.291 73.8096 152.426ZM98.3967 193.723H105.355V237.961V282.2H70.1984H35.0422V267.628C35.0422 247.099 36.585 239.734 42.752 230.83C50.8561 219.129 62.1635 212.771 77.0639 211.535C82.4973 211.084 84.8164 209.997 86.6076 207.058C87.5715 205.477 87.7725 204.102 87.7742 199.07L87.7766 192.991L89.6076 193.357C90.6148 193.558 94.5699 193.723 98.3967 193.723ZM140.513 199.143C140.515 204.102 140.718 205.482 141.68 207.058C143.471 209.997 145.79 211.084 151.224 211.535C157.603 212.064 162.496 213.241 167.216 215.38C176.922 219.781 184.779 227.655 189.205 237.416C192.429 244.527 192.782 247.068 193.085 265.354L193.364 282.2H158.148H122.933V237.978V193.757L130.696 193.575C134.967 193.475 138.922 193.335 139.486 193.265C140.404 193.151 140.511 193.766 140.513 199.143Z" fill="#3EAEB5"/>
</svg>
