<?xml version="1.0" encoding="UTF-8" standalone="no"?><svg width="300" height="300" viewBox="0 0 300 300" fill="none" xmlns="http://www.w3.org/2000/svg">
<path fill-rule="evenodd" clip-rule="evenodd" d="M142.307 1.12404C137.588 2.63224 134.376 4.6631 130.909 8.32873C120.809 19.008 121.224 35.1922 131.856 45.3336C133.675 47.0692 136.534 49.1832 138.209 50.0322C141.158 51.5264 141.253 51.6529 141.253 54.0658V56.5567L134.066 61.8846C118.676 73.2934 105.688 85.3813 98.5748 94.9168C94.5793 100.273 90.2176 108.746 89.1682 113.192C87.4959 120.273 88.8606 130.35 92.525 137.981C94.959 143.049 100.694 150.618 104.025 153.159L106.097 154.74V165.843V176.946L100.384 176.948C93.9137 176.95 91.7481 177.809 89.6879 181.188C88.6086 182.958 88.5231 184.163 88.5213 197.6L88.519 212.102H75.0424H61.5658V183.409V154.716L64.3795 150.406C74.7131 134.577 71.3188 116.428 55.1744 101.199C52.9344 99.0858 49.5008 96.2281 47.5444 94.8483L43.9877 92.3399L43.9854 84.6916C43.9836 78.0934 43.8237 76.7809 42.8188 75.1338C39.3682 69.4742 31.0291 69.4742 27.5785 75.1338C26.5737 76.7809 26.4137 78.0934 26.4119 84.6916L26.4096 92.3399L22.853 94.8483C14.8467 100.494 6.97522 109.23 3.55276 116.266C-2.04646 127.777 -0.997629 140.267 6.4889 151.235L8.83147 154.667L8.83382 224.254C8.83557 292.657 8.8555 293.872 10.0004 295.75C10.6408 296.8 12.0237 298.183 13.0742 298.824C14.9651 299.977 16.3069 299.989 150.042 299.989C283.778 299.989 285.12 299.977 287.011 298.824C288.061 298.183 289.444 296.8 290.084 295.75C291.229 293.872 291.249 292.657 291.251 224.274L291.253 154.708L293.887 150.781C298.555 143.821 300.346 137.402 299.902 129.221C299.408 120.086 295.596 112.346 287.308 103.647C284.975 101.199 280.955 97.6397 278.374 95.7371L273.682 92.2778L273.676 84.6606C273.672 78.0975 273.51 76.7791 272.506 75.1338C269.056 69.4742 260.717 69.4742 257.266 75.1338C256.262 76.7791 256.101 78.0975 256.096 84.6606L256.09 92.2778L251.323 95.7922C245.725 99.919 238.455 107.507 235.674 112.125C227.631 125.482 227.814 138.985 236.206 151.279L238.519 154.667V183.385V212.102H225.042H211.566L211.564 197.6C211.562 184.163 211.476 182.958 210.397 181.188C208.337 177.809 206.171 176.95 199.701 176.948L193.988 176.946V165.843V154.74L196.06 153.159C199.391 150.618 205.126 143.049 207.56 137.981C210.249 132.38 211.542 126.73 211.556 120.516C211.569 114.597 210.829 111.615 207.746 105.168C201.703 92.5344 187.6 77.8994 166.013 61.8647L158.839 56.5356L158.835 54.0553C158.831 51.6553 158.93 51.5246 161.859 50.0404C168.242 46.8061 174.635 38.9803 174.647 34.3871C174.656 30.2604 171.309 26.1893 167.285 25.434C164.643 24.9389 160.339 26.5315 158.965 28.5125C155.078 34.1176 152.082 35.767 147.891 34.6098C138.751 32.0861 139.837 19.0631 149.285 17.886C155.305 17.1365 158.833 13.792 158.829 8.84142C158.823 1.37365 151.794 -1.90936 142.307 1.12404ZM156.555 77.0944C178.164 93.459 190.971 107.427 193.431 117.31C194.968 123.492 191.818 131.987 185.711 138.127L182.068 141.789H150.042H118.017L114.374 138.127C108.288 132.008 105.135 123.422 106.685 117.189C109.118 107.408 122.783 92.5807 143.785 76.9356C146.95 74.5777 149.797 72.6488 150.113 72.6488C150.427 72.6488 153.326 74.6492 156.555 77.0944ZM40.318 111.923C48.3049 118.542 51.67 123.92 52.0408 130.657C52.2576 134.593 52.1106 135.387 50.6258 138.274L48.9682 141.497L35.1002 141.654L21.2328 141.811L19.5758 138.431C15.3998 129.913 19.3215 120.413 30.7994 111.243C32.7354 109.697 34.7153 108.426 35.1987 108.42C35.6821 108.414 37.9854 109.99 40.318 111.923ZM268.94 110.991C273.944 114.842 278.323 119.913 280.355 124.211C282.757 129.294 282.795 133.752 280.475 138.493L278.863 141.789H265.176H251.489L250.367 140.178C248.64 137.698 247.893 134.923 247.9 131.009C247.906 126.782 249.429 123.113 253.089 118.506C255.761 115.143 263.547 108.414 264.784 108.4C265.211 108.395 267.082 109.561 268.94 110.991ZM43.9877 220.891V282.414H35.1987H26.4096V220.891V159.368H35.1987H43.9877V220.891ZM176.41 168.157V176.946H150.042H123.675V168.157V159.368H150.042H176.41V168.157ZM273.675 220.891V282.414H264.886H256.097V220.891V159.368H264.886H273.675V220.891ZM193.988 203.313V212.102H150.042H106.097V203.313V194.524H150.042H193.988V203.313ZM238.519 256.047V282.414H229.437H220.355L220.353 267.913C220.351 254.475 220.265 253.271 219.186 251.501C215.735 245.841 207.396 245.841 203.946 251.501C202.866 253.271 202.781 254.475 202.779 267.913L202.777 282.414H193.988H185.199V276.076C185.199 266.527 183.348 261.287 177.965 255.594C174.437 251.865 171.261 249.883 166.375 248.362C163.36 247.423 160.922 247.258 150.096 247.258C133.52 247.258 129.818 248.255 123.222 254.492C117.133 260.252 114.886 266.053 114.886 276.021V282.414H106.097H97.308L97.3057 267.913C97.3039 254.475 97.2184 253.271 96.1391 251.501C92.6885 245.841 84.3494 245.841 80.8989 251.501C79.8196 253.271 79.734 254.475 79.7323 267.913L79.7299 282.414H70.6479H61.5658V256.047V229.68H150.042H238.519V256.047ZM163.295 266.338C166.687 268.873 167.27 270.283 167.522 276.571L167.757 282.414H150.11H132.464L132.468 277.873C132.47 275.376 132.731 272.394 133.05 271.248C133.728 268.808 136.272 266.175 138.678 265.422C139.611 265.13 145.168 264.945 151.027 265.01C160.766 265.119 161.817 265.233 163.295 266.338Z" fill="#3EAEB5"/>
</svg>
