<?xml version="1.0" encoding="UTF-8" standalone="no"?><svg width="300" height="301" viewBox="0 0 300 301" fill="none" xmlns="http://www.w3.org/2000/svg">
<path fill-rule="evenodd" clip-rule="evenodd" d="M39.399 1.19242C38.3484 1.83285 36.9656 3.21566 36.3252 4.26625C35.2447 6.03812 35.1604 7.24105 35.1586 20.9707L35.1562 35.7657H28.7631C18.7951 35.7657 12.9937 38.0121 7.23398 44.1018C3.89473 47.6332 2.34609 50.3309 0.943359 55.0618C0.0908203 57.9375 0 68.7973 0 167.895C0 266.992 0.0908203 277.852 0.943359 280.727C2.34609 285.458 3.89473 288.156 7.23398 291.687C10.7619 295.417 13.9377 297.399 18.8232 298.92C22.2516 299.987 26.6227 300.023 149.906 300.016C286.586 300.009 279.964 300.15 285.895 297.118C289.219 295.419 294.419 290.503 296.316 287.266C297.128 285.881 298.289 283.151 298.896 281.2C299.961 277.78 300 273.755 300 167.895C300 62.0344 299.961 58.0096 298.896 54.5889C298.289 52.6383 297.128 49.9084 296.316 48.5227C294.084 44.7153 288.788 40.0436 284.331 37.9518C280.632 36.2157 279.859 36.0774 272.607 35.8612L264.844 35.6297L264.841 20.9028C264.84 7.24105 264.755 6.03753 263.675 4.26625C260.224 -1.39333 251.885 -1.39333 248.435 4.26625C247.354 6.03812 247.27 7.24105 247.268 20.9707L247.266 35.7657H229.395H211.523L211.521 20.9707C211.519 7.24105 211.435 6.03812 210.354 4.26625C206.904 -1.39333 198.565 -1.39333 195.114 4.26625C194.034 6.03812 193.949 7.24105 193.948 20.9707L193.945 35.7657H176.367H158.789L158.787 20.9707C158.785 7.24105 158.701 6.03812 157.62 4.26625C154.17 -1.39333 145.83 -1.39333 142.38 4.26625C141.299 6.03812 141.215 7.24105 141.213 20.9707L141.211 35.7657H123.633H106.055L106.052 20.9707C106.051 7.24105 105.966 6.03812 104.886 4.26625C101.435 -1.39333 93.0961 -1.39333 89.6455 4.26625C88.565 6.03812 88.4807 7.24105 88.4789 20.9707L88.4766 35.7657H70.6055H52.7344L52.732 20.9707C52.7303 7.24105 52.6459 6.03812 51.5654 4.26625C49.0805 0.190464 43.3975 -1.24567 39.399 1.19242ZM278.095 54.845C278.985 55.5094 280.256 56.7809 280.921 57.6709L282.129 59.2893V167.895V276.5L280.921 278.118C280.256 279.008 278.985 280.28 278.095 280.944L276.476 282.152H150H23.5236L21.9053 280.944C21.0152 280.28 19.7438 279.008 19.0793 278.118L17.8711 276.5L17.6994 170.049C17.6051 111.501 17.6889 62.4662 17.8857 61.0828C18.317 58.0494 20.9889 54.7541 23.6438 53.9813C24.7406 53.6619 76.3359 53.4832 150.983 53.5407L276.477 53.6368L278.095 54.845ZM39.399 72.0909C38.3484 72.7313 36.9656 74.1141 36.3252 75.1647C35.1762 77.0485 35.1604 78.3018 35.1604 167.895C35.1604 257.487 35.1762 258.741 36.3252 260.624C36.9656 261.675 38.3484 263.058 39.399 263.698C41.2863 264.849 42.5748 264.863 150 264.863C257.425 264.863 258.714 264.849 260.601 263.698C261.652 263.058 263.034 261.675 263.675 260.624C264.824 258.741 264.84 257.487 264.84 167.895C264.84 78.3018 264.824 77.0485 263.675 75.1647C263.034 74.1141 261.652 72.7313 260.601 72.0909C258.714 70.9401 257.425 70.926 150 70.926C42.5748 70.926 41.2863 70.9401 39.399 72.0909ZM247.266 167.895V247.289H150H52.7344V167.895V88.5H150H247.266V167.895ZM134.359 108.096C117.725 112.453 103.423 123.841 95.4633 139.066C82.7871 163.315 87.5736 192.992 107.183 211.726C119.268 223.273 133.67 229.125 150 229.125C178.202 229.125 202.706 210.065 209.569 182.789C211.305 175.89 210.928 173.431 207.696 170.593C204.004 167.352 200.398 167.399 194.859 170.761C180.544 179.452 163.4 177.498 151.752 165.85C140.096 154.194 138.142 136.968 146.861 122.742C149.678 118.145 150.118 114.275 148.148 111.405C144.981 106.791 142.038 106.084 134.359 108.096ZM171.821 120.138C168.843 121.953 167.583 124.523 167.58 128.783L167.578 132.445L163.916 132.448C157.839 132.451 154.106 135.795 154.106 141.234C154.106 146.674 157.839 150.018 163.916 150.021L167.578 150.023L167.58 153.393C167.584 159.161 171.046 162.91 176.367 162.91C181.689 162.91 185.15 159.161 185.154 153.393L185.156 150.023L188.525 150.021C194.293 150.018 198.043 146.556 198.043 141.234C198.043 135.913 194.293 132.451 188.525 132.448L185.156 132.445L185.154 128.783C185.152 124.523 183.891 121.953 180.913 120.138C178.407 118.609 174.328 118.609 171.821 120.138ZM123.719 139.439C123.264 154.787 128.363 167.695 139.135 178.467C149.89 189.222 162.824 194.339 178.098 193.883L185.028 193.676L183.971 195.159C179.484 201.46 169.09 208 160.096 210.182C154.921 211.437 145.079 211.437 139.904 210.182C109.935 202.911 96.5666 167.711 114.226 142.566C116.359 139.528 123.078 132.445 123.827 132.445C123.881 132.445 123.833 135.592 123.719 139.439Z" fill="#3EAEB5"/>
</svg>
