<?xml version="1.0" encoding="UTF-8" standalone="no"?><svg width="301" height="300" viewBox="0 0 301 300" fill="none" xmlns="http://www.w3.org/2000/svg">
<path fill-rule="evenodd" clip-rule="evenodd" d="M145.635 1.08568C144.668 1.69694 135.176 10.9262 124.541 21.5959L105.204 40.995L76.1909 40.9973C48.2741 40.9991 47.1055 41.0436 45.2676 42.1642C44.2168 42.8047 42.8337 44.1878 42.1932 45.2386C41.0726 47.0765 41.0281 48.2451 41.0263 76.1619L41.024 105.175L21.3524 124.805C10.5332 135.601 1.3028 145.146 0.840405 146.016C0.378007 146.887 0 148.68 0 150.002C0 151.323 0.378007 153.116 0.840405 153.987C1.3028 154.857 10.5332 164.402 21.3524 175.198L41.024 194.828L41.0263 223.841C41.0281 251.758 41.0726 252.927 42.1932 254.764C42.8337 255.815 44.2168 257.198 45.2676 257.839C47.1055 258.959 48.2741 259.004 76.1909 259.006L105.204 259.008L124.834 278.68C135.63 289.499 145.175 298.729 146.045 299.192C148.075 300.269 151.986 300.269 154.016 299.192C154.886 298.729 164.431 289.499 175.227 278.68L194.857 259.008L223.87 259.006C251.787 259.004 252.956 258.959 254.793 257.839C255.844 257.198 257.227 255.815 257.868 254.764C258.988 252.927 259.033 251.758 259.035 223.841L259.037 194.828L278.709 175.198C289.528 164.402 298.758 154.857 299.221 153.987C300.298 151.957 300.298 148.046 299.221 146.016C298.758 145.146 289.528 135.601 278.709 124.805L259.037 105.175L259.035 76.1619C259.033 48.2451 258.988 47.0765 257.868 45.2386C257.227 44.1878 255.844 42.8047 254.793 42.1642C252.956 41.0436 251.787 40.9991 223.87 40.9973L194.857 40.995L175.227 21.3234C164.431 10.5042 154.886 1.2738 154.016 0.811405C151.783 -0.374188 147.737 -0.241739 145.635 1.08568ZM168.186 39.4958C178.024 49.3082 186.816 57.6155 187.723 57.9566C188.793 58.3587 198.528 58.5767 215.414 58.5767H241.455V84.6181C241.455 101.504 241.673 111.239 242.075 112.309C242.417 113.217 250.784 122.069 260.67 131.98L278.645 150.002L260.67 168.023C250.784 177.935 242.417 186.787 242.075 187.694C241.673 188.764 241.455 198.499 241.455 215.385V241.426H215.414C198.528 241.426 188.793 241.644 187.723 242.046C186.816 242.388 177.964 250.755 168.052 260.641L150.031 278.616L132.009 260.641C122.098 250.755 113.245 242.388 112.338 242.046C111.268 241.644 101.533 241.426 84.6471 241.426H58.6057V215.385C58.6057 198.499 58.3877 188.764 57.9856 187.694C57.6445 186.787 49.2768 177.935 39.3906 168.023L21.4163 150.002L39.3906 131.98C49.2768 122.069 57.6445 113.217 57.9856 112.309C58.3877 111.239 58.6057 101.504 58.6057 84.6181V58.5767H84.7432C106.737 58.5767 111.174 58.4378 112.729 57.6993C113.746 57.217 122.487 48.9097 132.154 39.2386C141.821 29.5675 149.858 21.6551 150.015 21.6551C150.171 21.6551 158.348 29.6835 168.186 39.4958ZM145.483 45.6805C141.928 47.8477 141.244 49.787 141.244 57.6976C141.244 63.6836 141.417 65.0145 142.409 66.6402C145.86 72.301 154.201 72.301 157.652 66.6402C158.644 65.0145 158.817 63.6836 158.817 57.6976C158.817 51.7116 158.644 50.3807 157.652 48.7549C156.024 46.0837 153.205 44.5154 150.031 44.5154C148.431 44.5154 146.642 44.9737 145.483 45.6805ZM110.32 80.8439C106.697 83.0522 106.081 84.89 106.079 93.4869C106.076 101.471 106.768 105.165 109.136 109.814C110.696 112.877 115.708 118.111 118.836 119.944C127.961 125.292 139.852 124.74 148.077 118.585L149.934 117.196L152.957 119.231C160.698 124.44 171.441 125.036 179.877 120.723C183.202 119.023 188.403 114.107 190.3 110.869C193.106 106.081 193.985 101.946 193.982 93.5414C193.981 86.8791 193.822 85.5681 192.816 83.9184C189.467 78.4252 181.257 78.2371 177.753 83.5732C176.927 84.8326 176.628 86.8158 176.385 92.6664C176.05 100.729 175.632 101.89 172.12 104.512C169.968 106.119 165.256 106.119 163.104 104.512C159.593 101.89 159.175 100.729 158.84 92.6664C158.596 86.8158 158.297 84.8326 157.471 83.5732C154.074 78.4006 145.987 78.4006 142.59 83.5732C141.764 84.8326 141.465 86.8158 141.221 92.6664C140.886 100.729 140.468 101.89 136.957 104.512C134.805 106.119 130.093 106.119 127.941 104.512C124.429 101.89 124.011 100.729 123.676 92.6664C123.333 84.4042 122.786 82.8998 119.377 80.821C116.907 79.3149 112.81 79.3254 110.32 80.8439ZM89.5483 142.342C84.8288 143.851 81.616 145.882 78.1483 149.549C73.461 154.505 70.9111 160.643 70.9152 166.957C70.9187 172.642 74.4204 176.368 79.7635 176.372C84.7151 176.376 88.0603 172.847 88.8099 166.826C89.9749 157.471 102.919 156.272 105.502 165.279C105.826 166.409 106.076 175.858 106.076 186.959C106.076 207.852 106.274 209.686 109.136 215.304C110.696 218.367 115.708 223.601 118.836 225.434C127.961 230.782 139.852 230.23 148.077 224.076L149.934 222.687L152.957 224.721C160.698 229.93 171.441 230.526 179.877 226.214C183.202 224.513 188.403 219.597 190.3 216.36C191.112 214.974 192.273 212.243 192.881 210.292C193.901 207.014 193.985 204.493 193.982 177.055C193.981 148.462 193.937 147.294 192.816 145.454C189.466 139.96 181.254 139.773 177.753 145.111C176.78 146.596 176.673 149.068 176.403 176.158C176.119 204.736 176.075 205.64 174.902 207.21C172.732 210.115 170.78 211.177 167.612 211.177C164.444 211.177 162.492 210.115 160.323 207.21C159.15 205.64 159.106 204.736 158.821 176.158C158.552 149.068 158.444 146.596 157.471 145.111C154.077 139.935 145.984 139.935 142.59 145.111C141.617 146.596 141.509 149.068 141.24 176.158C140.955 204.736 140.911 205.64 139.738 207.21C137.569 210.115 135.617 211.177 132.449 211.177C129.281 211.177 127.33 210.116 125.159 207.211C124.003 205.663 123.938 204.641 123.637 183.512C123.298 159.715 123.286 159.625 119.886 153.822C118.129 150.823 112.849 145.801 109.843 144.27C103.658 141.12 95.7277 140.366 89.5483 142.342ZM215.81 142.38C214.759 143.02 213.376 144.404 212.736 145.454C211.605 147.308 211.571 148.477 211.571 185.165C211.571 221.853 211.605 223.022 212.736 224.876C214.364 227.547 217.183 229.115 220.357 229.115C223.531 229.115 226.351 227.547 227.979 224.876C229.109 223.022 229.144 221.853 229.144 185.165C229.144 148.477 229.109 147.308 227.979 145.454C225.494 141.378 219.809 139.941 215.81 142.38Z" fill="#3EAEB5"/>
</svg>
