<?xml version="1.0" encoding="UTF-8" standalone="no"?><svg width="300" height="300" viewBox="0 0 300 300" fill="none" xmlns="http://www.w3.org/2000/svg">
<path fill-rule="evenodd" clip-rule="evenodd" d="M39.3955 1.16662C38.3449 1.80706 36.9621 3.18989 36.3217 4.2405C35.223 6.0417 35.1568 7.22414 35.155 25.0469C35.1539 35.4404 34.9482 43.9437 34.6986 43.9437C34.449 43.9437 28.9926 41.9661 22.5742 39.5491C15.0389 36.7113 10.0619 35.155 8.52611 35.1568C5.62509 35.1591 2.73286 36.8256 1.16486 39.3973C0.0158206 41.2811 0 42.535 0 132.422C0 221.703 0.0234378 223.574 1.14201 225.409C1.77015 226.439 2.92387 227.701 3.7067 228.214C4.48952 228.727 11.8191 231.058 19.9948 233.394L34.8597 237.641L35.1527 266.065C35.4217 292.181 35.5312 294.62 36.5027 296.102C37.9869 298.366 40.9178 299.998 43.5048 300C44.7148 300.001 54.4708 297.515 65.1848 294.475C75.8988 291.435 99.11 284.843 116.765 279.826C134.419 274.81 149.429 270.705 150.121 270.705C150.813 270.705 174.525 277.297 202.815 285.354C231.104 293.41 255.25 300.001 256.471 300C259.077 299.998 262.006 298.372 263.494 296.102C264.465 294.62 264.575 292.181 264.844 266.065L265.137 237.641L280.002 233.394C288.177 231.058 295.507 228.727 296.29 228.214C297.073 227.701 298.226 226.439 298.855 225.409C299.973 223.574 299.997 221.703 299.997 132.422C299.997 42.535 299.981 41.2811 298.832 39.3973C297.27 36.835 294.37 35.1586 291.504 35.1609C290.018 35.1621 284.897 36.7699 277.515 39.5532C271.11 41.9678 265.638 43.9437 265.357 43.9437C265.074 43.9437 264.843 35.455 264.841 25.0469C264.84 7.22414 264.774 6.0417 263.675 4.2405C262.132 1.70921 259.215 0.00234414 256.428 3.53049e-07C255.027 -0.00175749 234.369 6.56085 202.142 17.2456L150.119 34.4935L97.9633 17.2456C65.9102 6.64581 44.9398 -0.00175749 43.5564 3.53049e-07C42.3182 0.00117225 40.4456 0.52618 39.3955 1.16662ZM99.4604 36.6228L141.209 50.4582V114.997V179.535L139.012 177.445C135.911 174.496 130.057 170.692 125.167 168.448C122.872 167.395 105.634 161.485 86.8625 155.315L52.7311 144.096V82.629V21.1626L55.2214 21.9753C56.5913 22.4218 76.4989 29.0137 99.4604 36.6228ZM247.265 82.5933V144.095L212.841 155.47C193.908 161.727 176.608 167.666 174.397 168.669C169.698 170.801 164.094 174.464 160.985 177.435L158.787 179.535V114.979V50.4231L202.88 35.8072C227.131 27.7686 247.039 21.1691 247.119 21.1415C247.199 21.114 247.265 48.7678 247.265 82.5933ZM26.3635 60.0572C30.0696 61.4512 33.5636 62.7742 34.1273 62.9981C35.0947 63.3824 35.1527 66.928 35.155 125.892C35.1568 186.796 35.1861 188.427 36.2988 190.252C36.927 191.282 38.0578 192.529 38.8125 193.023C40.9483 194.423 147.888 229.689 149.996 229.689C152.595 229.689 259.689 194.189 261.582 192.7C265.024 189.993 264.844 193.699 264.844 125.78V63.4158L269.092 61.8273C271.429 60.9543 275.384 59.48 277.881 58.5519L282.422 56.8638L282.418 135.512L282.414 214.161L216.353 232.911C180.019 243.224 150.028 251.631 149.705 251.593C149.383 251.555 119.527 243.117 83.3574 232.842L17.596 214.161L17.5848 135.435C17.5749 60.6912 17.6264 56.7296 18.5997 57.1163C19.1634 57.3402 22.6574 58.6632 26.3635 60.0572ZM85.5441 173.757C104.715 180.087 118.334 184.903 120.602 186.153C127.441 189.922 134.338 197.552 137.843 205.225C138.395 206.434 138.637 207.423 138.382 207.423C138.126 207.423 118.75 201.086 95.3242 193.341L52.7311 179.259V171.093C52.7311 164.824 52.901 162.983 53.4635 163.166C53.8667 163.298 68.3026 168.064 85.5441 173.757ZM247.265 171.064V179.238L204.801 193.33C181.445 201.081 162.069 207.423 161.744 207.423C160.989 207.423 162.521 204.059 165.386 199.419C168.101 195.023 174.41 188.956 178.996 186.332C181.084 185.138 194.808 180.268 214.68 173.67C232.441 167.774 247.039 162.936 247.119 162.92C247.199 162.904 247.265 166.569 247.265 171.064ZM88.7668 252.907C104.236 257.289 116.953 260.929 117.028 260.994C117.128 261.082 74.1123 273.411 54.3425 278.96L52.7311 279.412V261.037V242.662L56.6862 243.8C58.8619 244.426 73.2978 248.524 88.7668 252.907ZM247.134 270.349L246.972 279.294L214.858 270.186L182.744 261.078L214.858 251.932L246.972 242.787L247.134 252.095C247.222 257.215 247.222 265.429 247.134 270.349Z" fill="#3EAEB5"/>
</svg>
