<?xml version="1.0" encoding="UTF-8" standalone="no"?><svg width="300" height="300" viewBox="0 0 300 300" fill="none" xmlns="http://www.w3.org/2000/svg">
<path fill-rule="evenodd" clip-rule="evenodd" d="M142.262 1.15521C137.542 2.6638 134.329 4.69518 130.861 8.36174C120.759 19.0438 121.173 35.2321 131.809 45.3761C133.628 47.112 136.488 49.2266 138.163 50.0759C141.116 51.5722 141.208 51.6947 141.208 54.1205C141.208 56.6108 141.183 56.6406 135.62 60.6219C120.988 71.0941 105.686 85.0565 98.6173 94.3835C94.5692 99.7251 90.166 108.192 89.1098 112.665C87.4371 119.749 88.8021 129.828 92.4675 137.461C94.9021 142.531 100.638 150.102 103.97 152.643L106.043 154.224V165.33V176.436L100.329 176.438C95.6986 176.44 94.2592 176.657 92.7412 177.582C89.4509 179.589 88.7845 181.26 88.4604 188.33L88.1674 194.718L82.8926 191.242C64.2545 178.959 49.6427 162.6 39.8275 143.029C33.404 130.22 29.7556 118.439 27.6428 103.687C26.3657 94.7685 25.6958 93.342 21.9009 91.4618C18.896 89.9726 17.3704 89.9767 14.2612 91.4818C11.407 92.8632 10.5994 93.9375 8.82119 98.7129C-0.228577 123.021 -2.50142 154.112 2.86831 180.144C11.6186 222.568 38.9267 259.75 77.1466 281.278C91.7923 289.528 110.505 295.931 128.021 298.685C136.115 299.958 155.706 300.426 164.406 299.554C199.914 295.999 231.782 280.649 257.09 254.91C281.341 230.245 296.047 198.877 299.493 164.462C300.364 155.77 299.896 136.875 298.6 128.377C296.836 116.81 291.581 97.8133 289.095 94.0195C288.071 92.4558 283.867 90.2809 281.869 90.2809C279.849 90.2809 275.889 92.4025 274.607 94.1713C273.849 95.2198 273.141 98.2118 272.356 103.687C267.111 140.31 247.691 171.086 217.107 191.242L211.832 194.718L211.539 188.33C211.215 181.26 210.548 179.589 207.258 177.582C205.74 176.657 204.301 176.44 199.67 176.438L193.956 176.436V165.33V154.224L196.029 152.643C199.361 150.102 205.097 142.531 207.532 137.461C211.197 129.828 212.562 119.749 210.889 112.665C209.833 108.192 205.43 99.7251 201.382 94.3835C194.318 85.0629 178.596 70.7226 164.212 60.4801C158.825 56.6436 158.791 56.6037 158.791 54.1193C158.791 51.697 158.885 51.571 161.819 50.0841C168.204 46.8489 174.598 39.0211 174.61 34.4268C174.62 30.299 171.272 26.2268 167.246 25.4714C164.604 24.9761 160.299 26.5691 158.924 28.5507C155.036 34.1572 152.04 35.807 147.847 34.6495C138.706 32.1252 139.792 19.0988 149.242 17.9214C155.263 17.1718 158.793 13.8264 158.789 8.87456C158.783 1.40488 151.752 -1.87896 142.262 1.15521ZM233.365 1.19272C229.985 3.2534 229.126 5.41958 229.124 11.8917L229.121 17.6061L223.407 17.6084C218.739 17.6102 217.343 17.8235 215.783 18.7753C210.122 22.2268 210.122 30.568 215.783 34.0195C217.343 34.9713 218.739 35.1846 223.407 35.1863L229.121 35.1887L229.124 40.903C229.125 45.5706 229.339 46.9673 230.291 48.5274C233.742 54.1885 242.083 54.1885 245.535 48.5274C246.486 46.9673 246.7 45.5706 246.702 40.903L246.704 35.1887L252.418 35.1863C257.086 35.1846 258.483 34.9713 260.043 34.0195C265.704 30.568 265.704 22.2268 260.043 18.7753C258.483 17.8235 257.086 17.6102 252.418 17.6084L246.704 17.6061L246.702 11.8917C246.7 7.22414 246.486 5.8275 245.535 4.26733C243.049 0.190513 237.365 -1.24599 233.365 1.19272ZM57.5391 36.3579C54.1585 38.4186 53.2999 40.5848 53.2976 47.057L53.2952 52.7713L47.5809 52.7736C42.9133 52.7754 41.5166 52.9887 39.9565 53.9405C34.2955 57.392 34.2955 65.7332 39.9565 69.1847C41.5166 70.1365 42.9133 70.3498 47.5809 70.3516L53.2952 70.3539L53.2976 76.0683C53.2993 80.7359 53.5127 82.1325 54.4645 83.6927C57.9159 89.3537 66.2571 89.3537 69.7086 83.6927C70.6604 82.1325 70.8737 80.7359 70.8755 76.0683L70.8778 70.3539L76.5922 70.3516C81.2598 70.3498 82.6564 70.1365 84.2166 69.1847C89.8776 65.7332 89.8776 57.392 84.2166 53.9405C82.6564 52.9887 81.2598 52.7754 76.5922 52.7736L70.8778 52.7713L70.8755 47.057C70.8737 42.3894 70.6604 40.9927 69.7086 39.4325C67.223 35.3557 61.5385 33.9192 57.5391 36.3579ZM157.334 77.6243C177.269 92.5971 190.472 106.728 193.157 115.965C195.081 122.583 192.131 131.118 185.677 137.607L182.033 141.27H150H117.966L114.322 137.607C107.893 131.144 104.936 122.522 106.868 115.875C109.506 106.801 122.446 92.9071 142.087 78.0586C145.956 75.1346 149.493 72.7322 149.949 72.7199C150.404 72.7082 153.728 74.9148 157.334 77.6243ZM21.0388 145.505C22.4038 148.641 25.4356 154.488 27.7764 158.499C46.1977 190.066 75.8402 213.387 110.439 223.534C125.213 227.867 132.95 228.895 150.586 228.87C162.79 228.852 166.044 228.653 172.271 227.544C203.198 222.031 228.069 209.194 249.662 187.6C262.074 175.188 272.825 159.709 279.068 145.263L281.576 139.46L282.043 143.149C282.613 147.648 282.089 159.994 280.991 167.937C273.954 218.815 238.534 260.711 189.408 276.267C176.573 280.332 164.764 282.102 150.293 282.129C139.039 282.152 132.5 281.49 122.133 279.28C68.0242 267.748 26.4964 222.905 19.0226 167.937C17.8469 159.293 17.3622 149.565 17.8381 144.187C18.0691 141.579 18.3252 139.526 18.4072 139.625C18.4899 139.724 19.6738 142.371 21.0388 145.505ZM176.373 167.644V176.436H150H123.626V167.644V158.853H150H176.373V167.644ZM193.956 198.678V203.337L187.566 205.402C172.823 210.169 155.842 212.271 141.648 211.088C131.618 210.252 121.104 208.206 112.433 205.402L106.043 203.337V198.678V194.018H150H193.956V198.678Z" fill="#3EAEB5"/>
</svg>
