<?xml version="1.0" encoding="UTF-8" standalone="no"?><svg width="325" height="100" viewBox="0 0 325 100" fill="none" xmlns="http://www.w3.org/2000/svg">
<circle cx="50" cy="50" r="50" fill="white"/>
<path d="M52.5506 34.1562C55.1163 32.6749 57.434 31.7514 59.5036 31.3859C61.5896 30.959 63.6317 31.309 65.63 32.4359C67.6283 33.5629 69.5365 35.7008 71.3544 38.8496L76.1014 47.0716C77.5827 49.6373 78.0972 52.0097 77.6447 54.1887C77.2088 56.3064 75.7273 58.0947 73.2005 59.5536L46.9752 74.6948C39.1225 79.2285 32.7609 77.2775 27.8905 68.8417C25.7134 65.0709 24.8421 61.9456 25.2765 59.466C25.7109 56.9864 26.9388 55.1631 28.9603 53.996C30.3598 53.188 31.6308 52.9207 32.7734 53.194C33.916 53.4673 34.7731 54.0091 35.3446 54.8194C34.6257 55.9084 34.2762 57.4578 34.2963 59.4676C34.2939 61.4387 34.9324 63.5321 36.2118 65.7479C37.2891 67.6139 38.4716 68.7194 39.7593 69.0645C41.0245 69.3706 42.2792 69.1646 43.5231 68.4464L54.7623 61.9575C53.7183 61.3162 52.6113 60.2967 51.4414 58.8988C50.2491 57.4621 49.204 55.9662 48.3063 54.4112C46.1067 50.6015 45.029 47.3881 45.073 44.7711C45.0946 42.1151 45.7728 40.0131 47.1078 38.4648C48.4816 36.8942 50.2959 35.4579 52.5506 34.1562ZM62.5619 41.127C61.8661 39.9219 60.9335 39.2941 59.764 39.2436C58.6335 39.1707 57.6017 39.4036 56.6687 39.9423C55.1914 40.7951 54.4016 42.2101 54.299 44.1871C54.2129 46.1028 54.7758 48.1103 55.9878 50.2095C57.1325 52.1921 58.6292 53.8419 60.478 55.1588C62.3432 56.4144 64.1116 56.5596 65.7833 55.5945L67.1244 54.8202C67.9408 54.3488 68.3832 53.6787 68.4517 52.8099C68.5203 51.941 68.1954 50.8845 67.4772 49.6406L62.5619 41.127ZM50.7705 30.1302C49.5653 30.826 48.2995 31.0126 46.9729 30.69C45.6628 30.3061 44.6823 29.5505 44.0314 28.4231C43.3581 27.2569 43.1939 26.0299 43.539 24.7422C43.9229 23.432 44.7174 22.4291 45.9225 21.7333C47.0499 21.0824 48.2574 20.9295 49.5451 21.2746C50.8717 21.5971 51.8716 22.3416 52.5449 23.5078C53.1958 24.6352 53.3405 25.8734 52.9791 27.2224C52.634 28.5101 51.8978 29.4794 50.7705 30.1302Z" fill="#3EAEB5"/>
<path d="M134.012 69.936C132.8 69.936 131.818 69.5651 131.066 68.8234C130.355 68.0817 130 67.1133 130 65.9183V29.7594C130 28.5644 130.334 27.6372 131.003 26.9779C131.713 26.3186 132.674 25.989 133.886 25.989H155.888C158.437 25.989 159.711 27.0603 159.711 29.2031C159.711 31.3046 158.437 32.3554 155.888 32.3554H137.961V44.223H154.634C157.183 44.223 158.458 45.2943 158.458 47.4371C158.458 49.5386 157.183 50.5894 154.634 50.5894H137.961V65.9183C137.961 67.1133 137.605 68.0817 136.895 68.8234C136.185 69.5651 135.224 69.936 134.012 69.936Z" fill="white"/>
<path d="M177.185 38.5982C181.447 38.5982 184.602 39.649 186.65 41.7506C188.739 43.8109 189.784 46.9632 189.784 51.2075V66.2892C189.784 67.4018 189.45 68.2877 188.781 68.947C188.112 69.5651 187.193 69.8742 186.023 69.8742C184.936 69.8742 184.038 69.5445 183.328 68.8852C182.659 68.2259 182.325 67.3606 182.325 66.2892V64.9294C181.614 66.5364 180.486 67.7932 178.94 68.6998C177.435 69.6063 175.68 70.0596 173.674 70.0596C171.627 70.0596 169.767 69.6475 168.096 68.8234C166.424 67.9993 165.108 66.8661 164.147 65.4238C163.186 63.9816 162.705 62.3745 162.705 60.6026C162.705 58.3775 163.269 56.6262 164.397 55.3488C165.568 54.0714 167.448 53.1442 170.039 52.5673C172.63 51.9904 176.203 51.702 180.758 51.702H182.325V50.2804C182.325 48.2612 181.886 46.7984 181.008 45.8918C180.131 44.9441 178.71 44.4702 176.746 44.4702C175.534 44.4702 174.301 44.6556 173.048 45.0265C171.794 45.3561 170.31 45.8506 168.597 46.5099C167.511 47.0456 166.717 47.3135 166.215 47.3135C165.463 47.3135 164.836 47.0456 164.335 46.5099C163.875 45.9742 163.645 45.2737 163.645 44.4084C163.645 43.7079 163.812 43.1104 164.147 42.6159C164.523 42.0802 165.129 41.5857 165.965 41.1325C167.427 40.3495 169.161 39.7314 171.167 39.2781C173.215 38.8249 175.221 38.5982 177.185 38.5982ZM175.242 64.4967C177.331 64.4967 179.023 63.8168 180.319 62.457C181.656 61.0559 182.325 59.2634 182.325 57.0795V55.7815H181.196C178.397 55.7815 176.224 55.9051 174.677 56.1523C173.131 56.3996 172.024 56.8322 171.355 57.4503C170.687 58.0684 170.352 58.9132 170.352 59.9845C170.352 61.3032 170.812 62.3951 171.731 63.2605C172.692 64.0846 173.862 64.4967 175.242 64.4967Z" fill="white"/>
<path d="M208.842 70.0596C204.287 70.0596 200.609 69.1737 197.81 67.4018C196.472 66.6188 195.804 65.5063 195.804 64.064C195.804 63.2399 196.034 62.5806 196.493 62.0861C196.953 61.5504 197.517 61.2826 198.186 61.2826C198.896 61.2826 199.878 61.6122 201.132 62.2715C202.469 62.8896 203.681 63.3635 204.767 63.6932C205.896 64.0228 207.316 64.1876 209.03 64.1876C210.785 64.1876 212.143 63.8992 213.104 63.3223C214.107 62.7454 214.608 61.9419 214.608 60.9117C214.608 60.2112 214.4 59.6549 213.982 59.2428C213.606 58.8308 212.895 58.4599 211.85 58.1302C210.848 57.7594 209.301 57.3473 207.212 56.894C203.493 56.1523 200.818 55.1015 199.189 53.7417C197.601 52.3819 196.807 50.507 196.807 48.117C196.807 46.3039 197.35 44.6762 198.436 43.234C199.523 41.7506 201.006 40.6174 202.887 39.8344C204.809 39.0103 206.982 38.5982 209.406 38.5982C211.161 38.5982 212.853 38.8249 214.483 39.2781C216.113 39.6902 217.575 40.3083 218.871 41.1325C220.208 41.9566 220.877 43.0486 220.877 44.4084C220.877 45.2325 220.647 45.933 220.187 46.5099C219.728 47.0456 219.163 47.3135 218.495 47.3135C218.035 47.3135 217.575 47.231 217.116 47.0662C216.698 46.8602 216.155 46.5717 215.486 46.2009C214.274 45.5828 213.229 45.1295 212.352 44.8411C211.474 44.5114 210.388 44.3466 209.092 44.3466C207.546 44.3466 206.314 44.6556 205.394 45.2737C204.517 45.8918 204.078 46.7366 204.078 47.8079C204.078 48.8381 204.538 49.621 205.457 50.1567C206.376 50.6924 208.152 51.2281 210.785 51.7638C213.585 52.3407 215.779 53 217.367 53.7417C218.954 54.4834 220.083 55.4106 220.751 56.5232C221.462 57.6358 221.817 59.0574 221.817 60.7881C221.817 63.5901 220.626 65.8359 218.244 67.5254C215.904 69.2149 212.77 70.0596 208.842 70.0596Z" fill="white"/>
<path d="M246.097 38.5982C253.285 38.5982 256.878 42.7395 256.878 51.0221V66.2274C256.878 67.3812 256.523 68.2877 255.813 68.947C255.144 69.6063 254.204 69.936 252.992 69.936C251.78 69.936 250.819 69.6063 250.109 68.947C249.398 68.2877 249.043 67.3812 249.043 66.2274V51.0221C249.043 48.8381 248.583 47.2517 247.664 46.2627C246.787 45.2325 245.387 44.7174 243.464 44.7174C241.208 44.7174 239.39 45.418 238.011 46.819C236.674 48.22 236.005 50.0949 236.005 52.4437V66.2274C236.005 67.3812 235.65 68.2877 234.94 68.947C234.229 69.6063 233.268 69.936 232.056 69.936C230.844 69.936 229.883 69.6063 229.173 68.947C228.504 68.2877 228.17 67.3812 228.17 66.2274V29.2649C228.17 28.1935 228.525 27.3282 229.236 26.6689C229.988 26.0096 230.949 25.6799 232.119 25.6799C233.289 25.6799 234.229 25.989 234.94 26.6071C235.65 27.2252 236.005 28.0699 236.005 29.1413V43.543C237.05 41.936 238.429 40.7204 240.142 39.8962C241.897 39.0309 243.882 38.5982 246.097 38.5982Z" fill="white"/>
<path d="M268.723 69.936C267.595 69.936 266.654 69.6269 265.902 69.0088C265.192 68.3495 264.837 67.4224 264.837 66.2274V29.3267C264.837 28.1317 265.192 27.2252 265.902 26.6071C266.654 25.989 267.595 25.6799 268.723 25.6799C269.851 25.6799 270.791 25.989 271.544 26.6071C272.296 27.2252 272.672 28.1317 272.672 29.3267V66.2274C272.672 67.4224 272.296 68.3495 271.544 69.0088C270.791 69.6269 269.851 69.936 268.723 69.936Z" fill="white"/>
<path d="M284.638 69.936C283.51 69.936 282.57 69.6269 281.818 69.0088C281.107 68.3495 280.752 67.4224 280.752 66.2274V42.3687C280.752 41.1737 281.107 40.2671 281.818 39.649C282.57 39.0309 283.51 38.7219 284.638 38.7219C285.767 38.7219 286.707 39.0309 287.459 39.649C288.211 40.2671 288.587 41.1737 288.587 42.3687V66.2274C288.587 67.4224 288.211 68.3495 287.459 69.0088C286.707 69.6269 285.767 69.936 284.638 69.936ZM284.638 33.2207C283.218 33.2207 282.089 32.8499 281.254 32.1082C280.418 31.3252 280 30.3157 280 29.0795C280 27.8433 280.418 26.8543 281.254 26.1126C282.089 25.3709 283.218 25 284.638 25C286.017 25 287.125 25.3709 287.961 26.1126C288.838 26.8543 289.277 27.8433 289.277 29.0795C289.277 30.3157 288.859 31.3252 288.023 32.1082C287.188 32.8499 286.059 33.2207 284.638 33.2207Z" fill="white"/>
<path d="M318.042 40.947C318.377 40.2053 318.815 39.6696 319.359 39.34C319.944 38.9691 320.57 38.7837 321.239 38.7837C322.2 38.7837 323.057 39.1133 323.809 39.7726C324.603 40.3907 325 41.1737 325 42.1214C325 42.5747 324.875 43.0486 324.624 43.543L307.512 78.8985C306.801 80.2995 305.694 81 304.189 81C303.228 81 302.372 80.6909 301.619 80.0728C300.909 79.4959 300.554 78.7542 300.554 77.8477C300.554 77.3944 300.679 76.8793 300.93 76.3024L305.192 67.4636L293.533 43.543C293.325 43.131 293.22 42.6571 293.22 42.1214C293.22 41.1737 293.617 40.3701 294.411 39.7108C295.247 39.0515 296.187 38.7219 297.232 38.7219C297.942 38.7219 298.59 38.9073 299.175 39.2781C299.76 39.6078 300.22 40.1435 300.554 40.8852L309.329 59.9845L318.042 40.947Z" fill="white"/>
</svg>
